<svg width="827" height="271" viewBox="0 0 827 271" xmlns="http://www.w3.org/2000/svg"><title>sorry-for-the-inconvenience</title><g fill="none" fill-rule="evenodd"><path d="M123.392 244C63.622 244 15 195.328 15 135.5 15 75.674 63.622 27 123.392 27c59.773 0 108.4 48.674 108.4 108.5 0 59.828-48.627 108.5-108.4 108.5zm0-194.443c-47.344 0-85.86 38.555-85.86 85.943s38.518 85.943 85.86 85.943c47.35 0 85.868-38.555 85.868-85.943s-38.52-85.943-85.868-85.943z" fill="#EF6C00"/><path d="M176.467 158.07H103V88.562C103 81.072 109.068 75 116.55 75c7.48 0 13.553 6.072 13.553 13.563v42.383h46.364c7.48 0 13.55 6.074 13.55 13.563 0 7.484-6.07 13.56-13.55 13.56z" fill="#EF6C00"/><path d="M299.04 102.64c1.6 1.76 3.56 3.227 5.88 4.4 2.32 1.173 4.76 1.76 7.32 1.76 2.4 0 4.36-.667 5.88-2 1.52-1.333 2.28-3.013 2.28-5.04 0-1.813-.587-3.267-1.76-4.36-1.173-1.093-2.64-2.067-4.4-2.92-1.76-.853-3.693-1.653-5.8-2.4-2.107-.747-4.093-1.68-5.96-2.8-2.187-1.28-4.053-2.933-5.6-4.96-1.547-2.027-2.32-4.613-2.32-7.76 0-2.507.533-4.733 1.6-6.68 1.067-1.947 2.453-3.6 4.16-4.96 1.707-1.36 3.667-2.387 5.88-3.08 2.213-.693 4.493-1.04 6.84-1.04 2.88 0 5.64.387 8.28 1.16 2.64.773 5.293 2.147 7.96 4.12l-5.6 8c-1.12-1.067-2.547-1.947-4.28-2.64-1.733-.693-3.533-1.04-5.4-1.04-1.013 0-2.04.12-3.08.36s-1.973.6-2.8 1.08c-.827.48-1.493 1.107-2 1.88-.507.773-.76 1.693-.76 2.76 0 1.493.64 2.72 1.92 3.68 1.28.96 2.88 1.84 4.8 2.64s3.987 1.64 6.2 2.52c2.213.88 4.28 2 6.2 3.36 1.92 1.36 3.52 3.067 4.8 5.12 1.28 2.053 1.92 4.653 1.92 7.8 0 2.507-.52 4.787-1.56 6.84s-2.427 3.813-4.16 5.28-3.747 2.613-6.04 3.44-4.693 1.24-7.2 1.24c-3.787 0-7.387-.733-10.8-2.2-3.413-1.467-6.56-3.533-9.44-6.2l7.04-7.36zm36.56-4.4c0-2.773.52-5.4 1.56-7.88 1.04-2.48 2.48-4.627 4.32-6.44 1.84-1.813 4.027-3.253 6.56-4.32 2.533-1.067 5.267-1.6 8.2-1.6 2.933 0 5.667.533 8.2 1.6 2.533 1.067 4.72 2.507 6.56 4.32 1.84 1.813 3.28 3.96 4.32 6.44 1.04 2.48 1.56 5.107 1.56 7.88 0 2.827-.52 5.453-1.56 7.88-1.04 2.427-2.48 4.56-4.32 6.4-1.84 1.84-4.027 3.28-6.56 4.32-2.533 1.04-5.267 1.56-8.2 1.56-2.933 0-5.667-.52-8.2-1.56-2.533-1.04-4.72-2.48-6.56-4.32-1.84-1.84-3.28-3.973-4.32-6.4-1.04-2.427-1.56-5.053-1.56-7.88zm10.4 0c0 1.44.253 2.8.76 4.08.507 1.28 1.2 2.4 2.08 3.36.88.96 1.947 1.72 3.2 2.28 1.253.56 2.653.84 4.2.84 1.493 0 2.88-.28 4.16-.84 1.28-.56 2.36-1.32 3.24-2.28.88-.96 1.573-2.08 2.08-3.36.507-1.28.76-2.64.76-4.08s-.253-2.813-.76-4.12-1.2-2.44-2.08-3.4c-.88-.96-1.96-1.72-3.24-2.28-1.28-.56-2.667-.84-4.16-.84-1.547 0-2.947.28-4.2.84-1.253.56-2.32 1.32-3.2 2.28-.88.96-1.573 2.093-2.08 3.4-.507 1.307-.76 2.68-.76 4.12zM407.28 88c-.373-.107-.907-.2-1.6-.28-.693-.08-1.413-.12-2.16-.12-1.12 0-2.187.187-3.2.56-1.013.373-1.933.84-2.76 1.4-.827.56-1.533 1.16-2.12 1.8-.587.64-1.04 1.253-1.36 1.84v24.4h-10.4V78.8h10v3.92c1.173-1.44 2.747-2.587 4.72-3.44 1.973-.853 4.16-1.28 6.56-1.28.747 0 1.373.027 1.88.08.507.053 1.053.133 1.64.24l-1.2 9.68zm30.8 0c-.373-.107-.907-.2-1.6-.28-.693-.08-1.413-.12-2.16-.12-1.12 0-2.187.187-3.2.56-1.013.373-1.933.84-2.76 1.4-.827.56-1.533 1.16-2.12 1.8-.587.64-1.04 1.253-1.36 1.84v24.4h-10.4V78.8h10v3.92c1.173-1.44 2.747-2.587 4.72-3.44 1.973-.853 4.16-1.28 6.56-1.28.747 0 1.373.027 1.88.08.507.053 1.053.133 1.64.24l-1.2 9.68zm11.44 48.8l10.72-23.12-17.36-34.88h11.44l11.36 23.28 10.48-23.28h10.96l-26.72 58h-10.88zm86.8-67.2c-.427-.107-.933-.2-1.52-.28-.587-.08-1.12-.12-1.6-.12-2.613 0-4.56.747-5.84 2.24-.427.587-.773 1.307-1.04 2.16-.267.853-.4 2.187-.4 4v1.2h12v8.8h-12v30h-10.4v-30h-10v-8.8h10v-1.6c0-3.147.347-5.707 1.04-7.68.693-1.973 1.733-3.627 3.12-4.96 1.387-1.333 3.08-2.427 5.08-3.28 2-.853 4.333-1.28 7-1.28 1.067 0 2.093.053 3.08.16.987.107 2.013.293 3.08.56l-1.6 8.88zm3.6 28.64c0-2.773.52-5.4 1.56-7.88 1.04-2.48 2.48-4.627 4.32-6.44 1.84-1.813 4.027-3.253 6.56-4.32 2.533-1.067 5.267-1.6 8.2-1.6 2.933 0 5.667.533 8.2 1.6 2.533 1.067 4.72 2.507 6.56 4.32 1.84 1.813 3.28 3.96 4.32 6.44 1.04 2.48 1.56 5.107 1.56 7.88 0 2.827-.52 5.453-1.56 7.88-1.04 2.427-2.48 4.56-4.32 6.4-1.84 1.84-4.027 3.28-6.56 4.32-2.533 1.04-5.267 1.56-8.2 1.56-2.933 0-5.667-.52-8.2-1.56-2.533-1.04-4.72-2.48-6.56-4.32-1.84-1.84-3.28-3.973-4.32-6.4-1.04-2.427-1.56-5.053-1.56-7.88zm10.4 0c0 1.44.253 2.8.76 4.08.507 1.28 1.2 2.4 2.08 3.36.88.96 1.947 1.72 3.2 2.28 1.253.56 2.653.84 4.2.84 1.493 0 2.88-.28 4.16-.84 1.28-.56 2.36-1.32 3.24-2.28.88-.96 1.573-2.08 2.08-3.36.507-1.28.76-2.64.76-4.08s-.253-2.813-.76-4.12-1.2-2.44-2.08-3.4c-.88-.96-1.96-1.72-3.24-2.28-1.28-.56-2.667-.84-4.16-.84-1.547 0-2.947.28-4.2.84-1.253.56-2.32 1.32-3.2 2.28-.88.96-1.573 2.093-2.08 3.4-.507 1.307-.76 2.68-.76 4.12zM611.6 88c-.373-.107-.907-.2-1.6-.28-.693-.08-1.413-.12-2.16-.12-1.12 0-2.187.187-3.2.56-1.013.373-1.933.84-2.76 1.4-.827.56-1.533 1.16-2.12 1.8-.587.64-1.04 1.253-1.36 1.84v24.4H588V78.8h10v3.92c1.173-1.44 2.747-2.587 4.72-3.44 1.973-.853 4.16-1.28 6.56-1.28.747 0 1.373.027 1.88.08.507.053 1.053.133 1.64.24L611.6 88zm56 29.6c-.693.267-1.693.467-3 .6-1.307.133-2.467.2-3.48.2-3.147 0-5.84-.493-8.08-1.48s-4.027-2.36-5.36-4.12c-1.013-1.333-1.747-2.907-2.2-4.72-.453-1.813-.68-4.107-.68-6.88V87.6H634v-8.8h10.8V68h10.4v10.8H668v8.8h-12.8v14.8c0 1.227.107 2.213.32 2.96.213.747.533 1.387.96 1.92.533.587 1.227 1.053 2.08 1.4s1.92.52 3.2.52c.747 0 1.547-.04 2.4-.12.853-.08 1.467-.173 1.84-.28l1.6 8.8zm17.2 0h-10.4V60.8h10.4v20.8c1.44-1.12 3.053-2 4.84-2.64 1.787-.64 3.693-.96 5.72-.96 2.72 0 5.24.56 7.56 1.68 2.32 1.12 4.28 2.64 5.88 4.56 1.28 1.547 2.267 3.36 2.96 5.44.693 2.08 1.04 4.8 1.04 8.16v19.76h-10.4V97.04c0-1.92-.2-3.427-.6-4.52-.4-1.093-.973-2.013-1.72-2.76-1.44-1.44-3.387-2.16-5.84-2.16-1.12 0-2.173.16-3.16.48-.987.32-1.88.72-2.68 1.2-.8.48-1.507 1-2.12 1.56-.613.56-1.107 1.08-1.48 1.56v25.2zm70.24-6.16c-1.867 2.24-4.227 3.96-7.08 5.16-2.853 1.2-5.8 1.8-8.84 1.8-2.88 0-5.56-.48-8.04-1.44-2.48-.96-4.627-2.32-6.44-4.08-1.813-1.76-3.24-3.88-4.28-6.36-1.04-2.48-1.56-5.24-1.56-8.28 0-2.72.44-5.293 1.32-7.72.88-2.427 2.147-4.573 3.8-6.44s3.64-3.347 5.96-4.44c2.32-1.093 4.92-1.64 7.8-1.64 2.667 0 5.12.533 7.36 1.6 2.24 1.067 4.173 2.493 5.8 4.28 1.627 1.787 2.893 3.88 3.8 6.28.907 2.4 1.36 4.96 1.36 7.68 0 1.12-.08 2.107-.24 2.96h-26.88c.16 1.387.533 2.64 1.12 3.76.587 1.12 1.347 2.08 2.28 2.88.933.8 2 1.427 3.2 1.88 1.2.453 2.493.68 3.88.68 2.24 0 4.2-.493 5.88-1.48 1.68-.987 2.973-1.987 3.88-3l5.92 5.92zm-9.68-18.24c-.107-.853-.36-1.693-.76-2.52s-.933-1.56-1.6-2.2c-.667-.64-1.453-1.147-2.36-1.52-.907-.373-1.893-.56-2.96-.56-2.187 0-4.053.693-5.6 2.08-1.547 1.387-2.453 2.96-2.72 4.72h16zM297.6 143.6h10.8v56h-10.8v-56zm21.2 56v-38.8h10v3.12c1.493-1.227 3.147-2.187 4.96-2.88 1.813-.693 3.813-1.04 6-1.04 2.72 0 5.24.56 7.56 1.68 2.32 1.12 4.28 2.64 5.88 4.56 1.28 1.547 2.267 3.36 2.96 5.44.693 2.08 1.04 4.8 1.04 8.16v19.76h-10.4v-20.56c0-1.92-.2-3.427-.6-4.52-.4-1.093-.973-2.013-1.72-2.76-1.44-1.44-3.387-2.16-5.84-2.16-1.12 0-2.173.16-3.16.48-.987.32-1.88.72-2.68 1.2-.8.48-1.507 1-2.12 1.56-.613.56-1.107 1.08-1.48 1.56v25.2h-10.4zm82.8-7.92c-2.293 3.04-4.88 5.253-7.76 6.64-2.88 1.387-6.16 2.08-9.84 2.08-2.987 0-5.76-.52-8.32-1.56-2.56-1.04-4.76-2.48-6.6-4.32-1.84-1.84-3.28-3.973-4.32-6.4-1.04-2.427-1.56-5.053-1.56-7.88s.533-5.467 1.6-7.92c1.067-2.453 2.533-4.6 4.4-6.44 1.867-1.84 4.067-3.28 6.6-4.32 2.533-1.04 5.293-1.56 8.28-1.56 3.36 0 6.467.707 9.32 2.12 2.853 1.413 5.187 3.293 7 5.64l-7.36 6.48c-1.067-1.387-2.36-2.507-3.88-3.36-1.52-.853-3.213-1.28-5.08-1.28-1.493 0-2.88.28-4.16.84-1.28.56-2.387 1.32-3.32 2.28-.933.96-1.667 2.08-2.2 3.36-.533 1.28-.8 2.667-.8 4.16 0 1.547.267 2.96.8 4.24.533 1.28 1.267 2.387 2.2 3.32.933.933 2.053 1.667 3.36 2.2 1.307.533 2.76.8 4.36.8 2.133 0 4-.533 5.6-1.6 1.6-1.067 2.827-2.24 3.68-3.52l8 6zm2.8-11.44c0-2.773.52-5.4 1.56-7.88 1.04-2.48 2.48-4.627 4.32-6.44 1.84-1.813 4.027-3.253 6.56-4.32 2.533-1.067 5.267-1.6 8.2-1.6 2.933 0 5.667.533 8.2 1.6 2.533 1.067 4.72 2.507 6.56 4.32 1.84 1.813 3.28 3.96 4.32 6.44 1.04 2.48 1.56 5.107 1.56 7.88 0 2.827-.52 5.453-1.56 7.88-1.04 2.427-2.48 4.56-4.32 6.4-1.84 1.84-4.027 3.28-6.56 4.32-2.533 1.04-5.267 1.56-8.2 1.56-2.933 0-5.667-.52-8.2-1.56-2.533-1.04-4.72-2.48-6.56-4.32-1.84-1.84-3.28-3.973-4.32-6.4-1.04-2.427-1.56-5.053-1.56-7.88zm10.4 0c0 1.44.253 2.8.76 4.08.507 1.28 1.2 2.4 2.08 3.36.88.96 1.947 1.72 3.2 2.28 1.253.56 2.653.84 4.2.84 1.493 0 2.88-.28 4.16-.84 1.28-.56 2.36-1.32 3.24-2.28.88-.96 1.573-2.08 2.08-3.36.507-1.28.76-2.64.76-4.08s-.253-2.813-.76-4.12-1.2-2.44-2.08-3.4c-.88-.96-1.96-1.72-3.24-2.28-1.28-.56-2.667-.84-4.16-.84-1.547 0-2.947.28-4.2.84-1.253.56-2.32 1.32-3.2 2.28-.88.96-1.573 2.093-2.08 3.4-.507 1.307-.76 2.68-.76 4.12zm37.68 19.36v-38.8h10v3.12c1.493-1.227 3.147-2.187 4.96-2.88 1.813-.693 3.813-1.04 6-1.04 2.72 0 5.24.56 7.56 1.68 2.32 1.12 4.28 2.64 5.88 4.56 1.28 1.547 2.267 3.36 2.96 5.44.693 2.08 1.04 4.8 1.04 8.16v19.76h-10.4v-20.56c0-1.92-.2-3.427-.6-4.52-.4-1.093-.973-2.013-1.72-2.76-1.44-1.44-3.387-2.16-5.84-2.16-1.12 0-2.173.16-3.16.48-.987.32-1.88.72-2.68 1.2-.8.48-1.507 1-2.12 1.56-.613.56-1.107 1.08-1.48 1.56v25.2h-10.4zm62.64-15.12l10.64-23.68h10.8l-17.84 38.8h-7.2l-17.84-38.8h10.8l10.64 23.68zm58.08 8.96c-1.867 2.24-4.227 3.96-7.08 5.16-2.853 1.2-5.8 1.8-8.84 1.8-2.88 0-5.56-.48-8.04-1.44-2.48-.96-4.627-2.32-6.44-4.08-1.813-1.76-3.24-3.88-4.28-6.36-1.04-2.48-1.56-5.24-1.56-8.28 0-2.72.44-5.293 1.32-7.72.88-2.427 2.147-4.573 3.8-6.44s3.64-3.347 5.96-4.44c2.32-1.093 4.92-1.64 7.8-1.64 2.667 0 5.12.533 7.36 1.6 2.24 1.067 4.173 2.493 5.8 4.28 1.627 1.787 2.893 3.88 3.8 6.28.907 2.4 1.36 4.96 1.36 7.68 0 1.12-.08 2.107-.24 2.96h-26.88c.16 1.387.533 2.64 1.12 3.76.587 1.12 1.347 2.08 2.28 2.88.933.8 2 1.427 3.2 1.88 1.2.453 2.493.68 3.88.68 2.24 0 4.2-.493 5.88-1.48 1.68-.987 2.973-1.987 3.88-3l5.92 5.92zm-9.68-18.24c-.107-.853-.36-1.693-.76-2.52s-.933-1.56-1.6-2.2c-.667-.64-1.453-1.147-2.36-1.52-.907-.373-1.893-.56-2.96-.56-2.187 0-4.053.693-5.6 2.08-1.547 1.387-2.453 2.96-2.72 4.72h16zm17.44 24.4v-38.8h10v3.12c1.493-1.227 3.147-2.187 4.96-2.88 1.813-.693 3.813-1.04 6-1.04 2.72 0 5.24.56 7.56 1.68 2.32 1.12 4.28 2.64 5.88 4.56 1.28 1.547 2.267 3.36 2.96 5.44.693 2.08 1.04 4.8 1.04 8.16v19.76h-10.4v-20.56c0-1.92-.2-3.427-.6-4.52-.4-1.093-.973-2.013-1.72-2.76-1.44-1.44-3.387-2.16-5.84-2.16-1.12 0-2.173.16-3.16.48-.987.32-1.88.72-2.68 1.2-.8.48-1.507 1-2.12 1.56-.613.56-1.107 1.08-1.48 1.56v25.2h-10.4zm58 0h-10.4v-38.8h10.4v38.8zm-12-52.56c0-1.867.667-3.44 2-4.72 1.333-1.28 2.933-1.92 4.8-1.92s3.467.64 4.8 1.92c1.333 1.28 2 2.853 2 4.72 0 1.867-.667 3.44-2 4.72-1.333 1.28-2.933 1.92-4.8 1.92s-3.467-.64-4.8-1.92c-1.333-1.28-2-2.853-2-4.72zm55.04 46.4c-1.867 2.24-4.227 3.96-7.08 5.16-2.853 1.2-5.8 1.8-8.84 1.8-2.88 0-5.56-.48-8.04-1.44-2.48-.96-4.627-2.32-6.44-4.08-1.813-1.76-3.24-3.88-4.28-6.36-1.04-2.48-1.56-5.24-1.56-8.28 0-2.72.44-5.293 1.32-7.72.88-2.427 2.147-4.573 3.8-6.44s3.64-3.347 5.96-4.44c2.32-1.093 4.92-1.64 7.8-1.64 2.667 0 5.12.533 7.36 1.6 2.24 1.067 4.173 2.493 5.8 4.28 1.627 1.787 2.893 3.88 3.8 6.28.907 2.4 1.36 4.96 1.36 7.68 0 1.12-.08 2.107-.24 2.96h-26.88c.16 1.387.533 2.64 1.12 3.76.587 1.12 1.347 2.08 2.28 2.88.933.8 2 1.427 3.2 1.88 1.2.453 2.493.68 3.88.68 2.24 0 4.2-.493 5.88-1.48 1.68-.987 2.973-1.987 3.88-3l5.92 5.92zm-9.68-18.24c-.107-.853-.36-1.693-.76-2.52s-.933-1.56-1.6-2.2c-.667-.64-1.453-1.147-2.36-1.52-.907-.373-1.893-.56-2.96-.56-2.187 0-4.053.693-5.6 2.08-1.547 1.387-2.453 2.96-2.72 4.72h16zm17.44 24.4v-38.8h10v3.12c1.493-1.227 3.147-2.187 4.96-2.88 1.813-.693 3.813-1.04 6-1.04 2.72 0 5.24.56 7.56 1.68 2.32 1.12 4.28 2.64 5.88 4.56 1.28 1.547 2.267 3.36 2.96 5.44.693 2.08 1.04 4.8 1.04 8.16v19.76h-10.4v-20.56c0-1.92-.2-3.427-.6-4.52-.4-1.093-.973-2.013-1.72-2.76-1.44-1.44-3.387-2.16-5.84-2.16-1.12 0-2.173.16-3.16.48-.987.32-1.88.72-2.68 1.2-.8.48-1.507 1-2.12 1.56-.613.56-1.107 1.08-1.48 1.56v25.2h-10.4zm82.8-7.92c-2.293 3.04-4.88 5.253-7.76 6.64-2.88 1.387-6.16 2.08-9.84 2.08-2.987 0-5.76-.52-8.32-1.56-2.56-1.04-4.76-2.48-6.6-4.32-1.84-1.84-3.28-3.973-4.32-6.4-1.04-2.427-1.56-5.053-1.56-7.88s.533-5.467 1.6-7.92c1.067-2.453 2.533-4.6 4.4-6.44 1.867-1.84 4.067-3.28 6.6-4.32 2.533-1.04 5.293-1.56 8.28-1.56 3.36 0 6.467.707 9.32 2.12 2.853 1.413 5.187 3.293 7 5.64l-7.36 6.48c-1.067-1.387-2.36-2.507-3.88-3.36-1.52-.853-3.213-1.28-5.08-1.28-1.493 0-2.88.28-4.16.84-1.28.56-2.387 1.32-3.32 2.28-.933.96-1.667 2.08-2.2 3.36-.533 1.28-.8 2.667-.8 4.16 0 1.547.267 2.96.8 4.24.533 1.28 1.267 2.387 2.2 3.32.933.933 2.053 1.667 3.36 2.2 1.307.533 2.76.8 4.36.8 2.133 0 4-.533 5.6-1.6 1.6-1.067 2.827-2.24 3.68-3.52l8 6zm39.04 1.76c-1.867 2.24-4.227 3.96-7.08 5.16-2.853 1.2-5.8 1.8-8.84 1.8-2.88 0-5.56-.48-8.04-1.44-2.48-.96-4.627-2.32-6.44-4.08-1.813-1.76-3.24-3.88-4.28-6.36-1.04-2.48-1.56-5.24-1.56-8.28 0-2.72.44-5.293 1.32-7.72.88-2.427 2.147-4.573 3.8-6.44s3.64-3.347 5.96-4.44c2.32-1.093 4.92-1.64 7.8-1.64 2.667 0 5.12.533 7.36 1.6 2.24 1.067 4.173 2.493 5.8 4.28 1.627 1.787 2.893 3.88 3.8 6.28.907 2.4 1.36 4.96 1.36 7.68 0 1.12-.08 2.107-.24 2.96h-26.88c.16 1.387.533 2.64 1.12 3.76.587 1.12 1.347 2.08 2.28 2.88.933.8 2 1.427 3.2 1.88 1.2.453 2.493.68 3.88.68 2.24 0 4.2-.493 5.88-1.48 1.68-.987 2.973-1.987 3.88-3l5.92 5.92zm-9.68-18.24c-.107-.853-.36-1.693-.76-2.52s-.933-1.56-1.6-2.2c-.667-.64-1.453-1.147-2.36-1.52-.907-.373-1.893-.56-2.96-.56-2.187 0-4.053.693-5.6 2.08-1.547 1.387-2.453 2.96-2.72 4.72h16z" fill="#000"/></g></svg>